# xmcd
#
# Track frame offsets:
#	150
#	4532
#	26323
#	49383
#	69999
#	86687
#	108789
#	128088
#	135639
#	153921
#	171052
#	189462
#	210757
#	231627
#	251532
#	261444
#
# Disc length: 3748 seconds
#
# Revision: 7
# Processed by: cddbd v1.5.2PL0 Copyright (c) Steve Scherf et al.
# Submitted via: audiograbber 1.83.01
#
DISCID=cc0ea210
DTITLE=Evanescence - Synthesis
DYEAR=2017
DGENRE=Symphonic Rock
TTITLE0=Overture
TTITLE1=Never Go Back
TTITLE2=Hi-Lo
TTITLE3=My Heart Is Broken
TTITLE4=Lacrymosa
TTITLE5=The End Of The Dream
TTITLE6=Bring Me To Life
TTITLE7=Unraveling [Interlude]
TTITLE8=Imaginary
TTITLE9=Secret Door
TTITLE10=Lithium
TTITLE11=Lost In Paradise
TTITLE12=Your Star
TTITLE13=My Immortal
TTITLE14=The In-Between [piano solo]
TTITLE15=Imperfection
EXTD=
EXTT0=
EXTT1=
EXTT2=
EXTT3=
EXTT4=
EXTT5=
EXTT6=
EXTT7=
EXTT8=
EXTT9=
EXTT10=
EXTT11=
EXTT12=
EXTT13=
EXTT14=
EXTT15=
PLAYORDER=
